<svg version="1.1" xmlns="http://www.w3.org/2000/svg" style="display: block;" viewBox="0 0 2048 604" width="1000" height="295" preserveAspectRatio="none">
<path transform="translate(0,0)" fill="rgb(255,255,255)" d="M 0 0 L 2048 0 L 2048 604 L 0 604 L 0 0 z"/>
<path transform="translate(0,0)" fill="rgb(0,0,0)" d="M 1636.81 231.978 L 1776.65 231.996 C 1776.49 282.543 1773.7 333.865 1773.21 384.5 C 1772.89 417.143 1771.88 448.963 1768.51 481.439 C 1774.66 468.773 1785.47 429.035 1791.01 413.166 C 1811.99 353.032 1831.53 292.041 1852.81 231.975 L 1988.99 232.069 C 1983.07 245.215 1975.82 259.311 1969.4 272.335 L 1819.7 576.409 C 1770.37 576.98 1719.73 576.439 1670.35 576.37 C 1670.08 557.943 1670.77 538.202 1670.84 519.634 C 1670.76 478.218 1671.26 436.802 1672.33 395.4 C 1672.82 379.464 1675.77 361.88 1675.86 347.024 C 1667.36 378.833 1652.5 413.522 1640.14 444.478 L 1587.35 576.419 C 1536.62 576.961 1484.78 576.418 1433.98 576.408 C 1433.04 567.525 1432.99 554.854 1432.42 545.412 L 1427.75 453.562 L 1416.02 232.014 L 1553.17 232.028 C 1550.72 250.7 1549.85 287.754 1548.59 308.008 C 1544.95 366.635 1541.5 423.111 1536.21 481.667 C 1542.48 466.554 1547.28 447.979 1553.8 431.836 L 1636.81 231.978 z"/>
<path transform="translate(0,0)" fill="rgb(0,0,0)" d="M 1185.67 224.427 C 1191.37 223.768 1207.29 223.914 1213.47 223.934 C 1268.56 224.111 1322.72 232.665 1376.31 244.688 C 1359.8 329.251 1337.94 413.802 1324.53 498.923 C 1320.56 524.105 1319.71 550.876 1317.95 576.391 L 1176.32 576.349 L 1181.43 514.438 C 1175.85 521.027 1170.31 527.646 1164.81 534.296 C 1086.86 622.689 963.732 593.59 959.294 468.945 C 954.08 322.502 1042.57 233.634 1185.67 224.427 z"/>
<path transform="translate(0,0)" fill="rgb(255,255,255)" d="M 1196 315.436 C 1203.23 315.014 1211.31 315.969 1218.59 316.608 C 1207.79 364.18 1192.1 483.792 1125.68 479.733 C 1109.38 473.93 1101.31 459.206 1101.47 442.319 C 1102.06 383.828 1130.12 318.911 1196 315.436 z"/>
<path transform="translate(0,0)" fill="rgb(0,0,0)" d="M 616.861 86.427 C 648.25 83.1575 730.684 91.7685 760.891 102.897 C 752.791 144.319 741.285 194.636 731.375 235.593 L 728.826 234.528 C 713.781 228.299 699.425 222.456 683.49 218.633 C 607.201 200.329 522.718 219.09 490.995 298.368 C 469.905 351.072 468.601 427.408 531.545 452.052 C 584.531 472.798 640.1 454.903 689.947 433.951 L 670.11 525.554 C 666.88 537.435 664.025 553.754 661.007 566.404 C 517.008 611.566 339.337 581.541 324.671 403.464 C 312.917 260.745 389.365 134.659 530.199 99.4112 C 560.951 91.7147 585.566 88.7967 616.861 86.427 z"/>
<path transform="translate(0,0)" fill="rgb(0,0,0)" d="M 829.552 66.5039 C 877.618 66.305 925.685 66.3873 973.75 66.7509 C 968.814 84.1496 963.889 110.894 960.023 129.074 L 935.78 243.365 L 908.711 370.144 C 903.497 394.624 897.853 419.432 893.653 444.081 C 892.823 449.789 891.52 458.49 893.613 463.991 C 901.843 485.616 939.312 472.809 953.762 468.148 L 933.718 562.254 C 933.154 565.328 932.714 570.077 930.768 572.258 C 911.664 583.958 849.686 587.438 827.38 583.203 C 705.811 560.123 748.408 444.769 766.476 360.963 L 808.314 166.981 C 814.943 136.163 824.614 97.0612 829.552 66.5039 z"/>
<path transform="translate(0,0)" fill="rgb(254,128,39)" d="M 71.1477 307.122 L 217.767 307.129 L 217.764 565.238 L 71.2274 565.225 L 71.1477 307.122 z"/>
<path transform="translate(0,0)" fill="rgb(254,128,39)" d="M 135.006 134.352 C 173.461 128.401 209.458 154.751 215.408 193.206 C 221.357 231.661 195.006 267.657 156.551 273.605 C 118.098 279.553 82.1037 253.203 76.1544 214.751 C 70.2052 176.298 96.5535 140.303 135.006 134.352 z"/>
</svg>